<svg width="1150" height="296" xmlns="http://www.w3.org/2000/svg">
    <g fill="none" fill-rule="evenodd">
        <path d="m207.244 32.459 4.16-4.243C191.534 16.625 168.52 10 143.99 10 68.884 10 8 72.097 8 148.698c0 76.6 60.884 138.697 135.989 138.697 75.104 0 135.989-62.097 135.989-138.697 0-17.013-3.004-33.311-8.5-48.372l-4.427 4.516c4.703 13.73 7.26 28.489 7.26 43.856 0 73.408-58.347 132.918-130.322 132.918S13.666 222.106 13.666 148.698c0-73.41 58.348-132.919 130.323-132.919 22.955 0 44.523 6.053 63.255 16.68Z" stroke="#7ED321" stroke-width="12"/>
        <path d="m111.408 182.711.812-.828 161.082-164.29 6.226-6.35 12.452 12.7-6.226 6.35-161.081 164.29-.813.829-12.452 12.7-6.226-6.35-44.947-45.842-6.226-6.35 12.452-12.7 6.226 6.35 38.721 39.491Z" fill="#7ED321"/>
        <path d="M335 147c0-10.667 1.875-21.292 5.625-31.875 3.75-10.583 9.208-20.042 16.375-28.375 7.167-8.333 16-15.125 26.5-20.375s22.417-7.875 35.75-7.875c15.833 0 29.333 3.583 40.5 10.75 11.167 7.167 19.5 16.5 25 28l-14 8.5C467.917 99.917 464.5 95 460.5 91s-8.333-7.25-13-9.75-9.5-4.292-14.5-5.375c-5-1.083-9.917-1.625-14.75-1.625-10.667 0-20.083 2.167-28.25 6.5-8.167 4.333-15.042 10-20.625 17s-9.792 14.875-12.625 23.625S352.5 139 352.5 148c0 9.833 1.708 19.25 5.125 28.25s8.083 16.958 14 23.875c5.917 6.917 12.917 12.417 21 16.5S409.5 222.75 419 222.75c5 0 10.125-.625 15.375-1.875s10.333-3.25 15.25-6 9.458-6.167 13.625-10.25 7.667-9.042 10.5-14.875l14.5 7.5a54.272 54.272 0 0 1-12 17.625A78.897 78.897 0 0 1 459 227.75a85.967 85.967 0 0 1-20.125 8c-7.083 1.833-14.042 2.75-20.875 2.75-12.167 0-23.333-2.667-33.5-8-10.167-5.333-18.917-12.292-26.25-20.875-7.333-8.583-13.042-18.333-17.125-29.25C337.042 169.458 335 158.333 335 147Zm214 92.5c-6.667 0-12.75-1.042-18.25-3.125s-10.208-4.958-14.125-8.625-6.958-7.917-9.125-12.75-3.25-9.917-3.25-15.25c0-6 1.333-11.458 4-16.375s6.417-9.125 11.25-12.625 10.625-6.208 17.375-8.125c6.75-1.917 14.208-2.875 22.375-2.875 6.5 0 13.167.583 20 1.75s12.917 2.833 18.25 5v-11.75c0-11.5-3.292-20.625-9.875-27.375S572.167 117.25 561 117.25c-7 0-13.958 1.333-20.875 4s-13.958 6.5-21.125 11.5l-6-11.25c8.5-5.667 16.75-9.917 24.75-12.75s16.333-4.25 25-4.25c15.833 0 28.417 4.583 37.75 13.75 9.333 9.167 14 21.833 14 38V215c0 4.667 2 7 6 7v15a71.296 71.296 0 0 1-3.75.375 43.02 43.02 0 0 1-3 .125c-3.333 0-6.375-1-9.125-3s-4.292-5-4.625-9l-.5-10.25c-5.667 7.667-13.125 13.625-22.375 17.875S558.5 239.5 549 239.5Zm4.25-13c7.5 0 14.958-1.625 22.375-4.875s13.292-7.708 17.625-13.375a26.4 26.4 0 0 0 3-4.875c.833-1.75 1.25-3.375 1.25-4.875v-21.25c-5.667-2.167-11.583-3.833-17.75-5-6.167-1.167-12.167-1.75-18-1.75-12.167 0-22.042 2.458-29.625 7.375-7.583 4.917-11.375 11.708-11.375 20.375 0 3.5.667 6.917 2 10.25s3.375 6.333 6.125 9S535 222.333 539 224c4 1.667 8.75 2.5 14.25 2.5Zm89.75-55c0-9.167 1.583-17.833 4.75-26 3.167-8.167 7.625-15.292 13.375-21.375s12.625-10.875 20.625-14.375 16.833-5.25 26.5-5.25c12.333 0 23.083 2.792 32.25 8.375 9.167 5.583 16.083 13.125 20.75 22.625l-16.5 5.25c-3.667-6.667-8.75-11.875-15.25-15.625s-13.75-5.625-21.75-5.625c-6.667 0-12.875 1.333-18.625 4s-10.75 6.292-15 10.875-7.583 10.042-10 16.375S660.5 164 660.5 171.5c0 7.333 1.25 14.25 3.75 20.75s5.917 12.125 10.25 16.875 9.375 8.5 15.125 11.25S701.5 224.5 708 224.5a44.84 44.84 0 0 0 12.375-1.75c4.083-1.167 7.875-2.792 11.375-4.875s6.5-4.458 9-7.125 4.25-5.5 5.25-8.5l16.5 5c-1.833 4.667-4.5 8.958-8 12.875s-7.625 7.333-12.375 10.25-10 5.167-15.75 6.75c-5.75 1.583-11.708 2.375-17.875 2.375-9.5 0-18.25-1.792-26.25-5.375s-14.917-8.5-20.75-14.75-10.375-13.458-13.625-21.625S643 180.833 643 171.5ZM898.5 237h-17v-72.75c0-14.833-2.542-25.917-7.625-33.25-5.083-7.333-12.542-11-22.375-11-4.833 0-9.625.958-14.375 2.875s-9.208 4.542-13.375 7.875-7.792 7.25-10.875 11.75-5.375 9.417-6.875 14.75V237h-17V54.5h17v81.75c5.333-9.833 12.583-17.583 21.75-23.25 9.167-5.667 19-8.5 29.5-8.5 7.5 0 13.875 1.375 19.125 4.125s9.5 6.583 12.75 11.5 5.625 10.833 7.125 17.75 2.25 14.542 2.25 22.875V237Zm92.25 2.5c-9.5 0-18.25-1.792-26.25-5.375s-14.917-8.5-20.75-14.75-10.375-13.458-13.625-21.625-4.875-16.917-4.875-26.25c0-9.167 1.625-17.792 4.875-25.875 3.25-8.083 7.792-15.167 13.625-21.25s12.708-10.917 20.625-14.5S981 104.5 990.5 104.5s18.208 1.792 26.125 5.375c7.917 3.583 14.708 8.458 20.375 14.625s10.083 13.25 13.25 21.25 4.75 16.5 4.75 25.5c0 1.333-.042 2.667-.125 4-.083 1.333-.208 2.25-.375 2.75H943.25c.5 7 2.125 13.458 4.875 19.375s6.25 11.042 10.5 15.375a46.135 46.135 0 0 0 14.75 10.125c5.583 2.417 11.542 3.625 17.875 3.625 4.333 0 8.583-.583 12.75-1.75s8-2.75 11.5-4.75 6.625-4.458 9.375-7.375 4.875-6.125 6.375-9.625l14.75 4c-2 4.833-4.833 9.208-8.5 13.125s-7.917 7.333-12.75 10.25-10.167 5.167-16 6.75c-5.833 1.583-11.833 2.375-18 2.375Zm48-74.5c-.5-7-2.125-13.375-4.875-19.125s-6.25-10.708-10.5-14.875-9.208-7.417-14.875-9.75-11.667-3.5-18-3.5-12.333 1.167-18 3.5-10.625 5.583-14.875 9.75-7.667 9.167-10.25 15-4.125 12.167-4.625 19h96Zm103.5 65.75c-1 .5-2.458 1.167-4.375 2-1.917.833-4.125 1.667-6.625 2.5s-5.333 1.583-8.5 2.25-6.5 1-10 1c-3.667 0-7.167-.5-10.5-1.5s-6.25-2.542-8.75-4.625-4.5-4.708-6-7.875-2.25-6.833-2.25-11v-93.25h-18v-13.5h18v-44h17v44h30v13.5h-30v88.5c.333 4.833 2 8.375 5 10.625s6.583 3.375 10.75 3.375c4.833 0 9.083-.792 12.75-2.375s6-2.708 7-3.375l4.5 13.75Z" fill="#ffffff"/>
    </g>
</svg>
